<svg xmlns="http://www.w3.org/2000/svg" style="display:none">
  <symbol id="i-cursor" viewBox="0 0 24 24" fill="none" stroke="currentColor" stroke-width="1.75" stroke-linecap="round" stroke-linejoin="round"><path d="M4 4l7 16 2.5-6.5L20 11z"/></symbol>
  <symbol id="i-layers" viewBox="0 0 24 24" fill="none" stroke="currentColor" stroke-width="1.75" stroke-linecap="round" stroke-linejoin="round"><path d="M12 2l9 5-9 5-9-5 9-5z"/><path d="M3 12l9 5 9-5"/><path d="M3 17l9 5 9-5"/></symbol>
  <symbol id="i-device" viewBox="0 0 24 24" fill="none" stroke="currentColor" stroke-width="1.75" stroke-linecap="round" stroke-linejoin="round"><rect x="7" y="2" width="10" height="20" rx="2"/><path d="M11 18h2"/></symbol>
  <symbol id="i-branch" viewBox="0 0 24 24" fill="none" stroke="currentColor" stroke-width="1.75" stroke-linecap="round" stroke-linejoin="round"><circle cx="6" cy="6" r="2.5"/><circle cx="18" cy="6" r="2.5"/><circle cx="12" cy="18" r="2.5"/><path d="M6 8.5v2a4 4 0 004 4h0a4 4 0 004-4v-2"/><path d="M12 14.5V15.5"/></symbol>
  <symbol id="i-card" viewBox="0 0 24 24" fill="none" stroke="currentColor" stroke-width="1.75" stroke-linecap="round" stroke-linejoin="round"><rect x="2" y="5" width="20" height="14" rx="2"/><path d="M2 10h20"/><path d="M6 15h4"/></symbol>
  <symbol id="i-invoice" viewBox="0 0 24 24" fill="none" stroke="currentColor" stroke-width="1.75" stroke-linecap="round" stroke-linejoin="round"><path d="M7 3h8l4 4v14H7z"/><path d="M15 3v4h4"/><path d="M10 12h6"/><path d="M10 16h6"/><path d="M10 8h2"/></symbol>
  <symbol id="i-inbox" viewBox="0 0 24 24" fill="none" stroke="currentColor" stroke-width="1.75" stroke-linecap="round" stroke-linejoin="round"><path d="M4 14l2-9h12l2 9"/><path d="M4 14h4l1.5 2h5L16 14h4v5a2 2 0 01-2 2H6a2 2 0 01-2-2v-5z"/></symbol>
  <symbol id="i-mail" viewBox="0 0 24 24" fill="none" stroke="currentColor" stroke-width="1.75" stroke-linecap="round" stroke-linejoin="round"><rect x="3" y="5" width="18" height="14" rx="2"/><path d="M3 7l9 7 9-7"/></symbol>
  <symbol id="i-shield" viewBox="0 0 24 24" fill="none" stroke="currentColor" stroke-width="1.75" stroke-linecap="round" stroke-linejoin="round"><path d="M12 3l8 3v6c0 5-3.5 8.5-8 10-4.5-1.5-8-5-8-10V6l8-3z"/><path d="M9 12l2 2 4-4"/></symbol>
  <symbol id="i-pen" viewBox="0 0 24 24" fill="none" stroke="currentColor" stroke-width="1.75" stroke-linecap="round" stroke-linejoin="round"><path d="M12 20h9"/><path d="M16.5 3.5a2.1 2.1 0 013 3L8 18l-4 1 1-4 11.5-11.5z"/></symbol>
  <symbol id="i-chart" viewBox="0 0 24 24" fill="none" stroke="currentColor" stroke-width="1.75" stroke-linecap="round" stroke-linejoin="round"><path d="M4 19V5"/><path d="M4 19h16"/><path d="M8 16v-5"/><path d="M12 16V8"/><path d="M16 16v-8"/></symbol>
  <symbol id="i-lock" viewBox="0 0 24 24" fill="none" stroke="currentColor" stroke-width="1.75" stroke-linecap="round" stroke-linejoin="round"><rect x="5" y="11" width="14" height="10" rx="2"/><path d="M8 11V8a4 4 0 018 0v3"/></symbol>
  <symbol id="i-health" viewBox="0 0 24 24" fill="none" stroke="currentColor" stroke-width="1.75" stroke-linecap="round" stroke-linejoin="round"><path d="M12 21s-7-4.5-7-10a4 4 0 017-2.5A4 4 0 0119 11c0 5.5-7 10-7 10z"/></symbol>
  <symbol id="i-edu" viewBox="0 0 24 24" fill="none" stroke="currentColor" stroke-width="1.75" stroke-linecap="round" stroke-linejoin="round"><path d="M2 9l10-5 10 5-10 5L2 9z"/><path d="M6 11.5V16c0 1.5 2.7 3 6 3s6-1.5 6-3v-4.5"/><path d="M22 9v6"/></symbol>
  <symbol id="i-megaphone" viewBox="0 0 24 24" fill="none" stroke="currentColor" stroke-width="1.75" stroke-linecap="round" stroke-linejoin="round"><path d="M3 11v2a2 2 0 002 2h1l8 4V5L6 9H5a2 2 0 00-2 2z"/><path d="M16 8.5a4 4 0 010 7"/><path d="M7 15v3a2 2 0 002 2h1"/></symbol>
  <symbol id="i-calendar" viewBox="0 0 24 24" fill="none" stroke="currentColor" stroke-width="1.75" stroke-linecap="round" stroke-linejoin="round"><rect x="3" y="5" width="18" height="16" rx="2"/><path d="M3 10h18"/><path d="M8 3v4"/><path d="M16 3v4"/></symbol>
  <symbol id="i-heart" viewBox="0 0 24 24" fill="none" stroke="currentColor" stroke-width="1.75" stroke-linecap="round" stroke-linejoin="round"><path d="M12 21s-7-4.4-7-10a4.2 4.2 0 017-3 4.2 4.2 0 017 3c0 5.6-7 10-7 10z"/></symbol>
  <symbol id="i-cart" viewBox="0 0 24 24" fill="none" stroke="currentColor" stroke-width="1.75" stroke-linecap="round" stroke-linejoin="round"><circle cx="9" cy="20" r="1.5"/><circle cx="18" cy="20" r="1.5"/><path d="M3 4h2l2.4 11.2a2 2 0 002 1.6h8.4a2 2 0 002-1.5L21 8H7"/></symbol>
  <symbol id="i-headset" viewBox="0 0 24 24" fill="none" stroke="currentColor" stroke-width="1.75" stroke-linecap="round" stroke-linejoin="round"><path d="M4 13v-2a8 8 0 0116 0v2"/><path d="M4 13a2 2 0 002 2h1v-5H6a2 2 0 00-2 2z"/><path d="M20 13a2 2 0 01-2 2h-1v-5h1a2 2 0 012 2z"/><path d="M15 19a3 3 0 01-3 3h-1"/></symbol>
  <symbol id="i-quiz" viewBox="0 0 24 24" fill="none" stroke="currentColor" stroke-width="1.75" stroke-linecap="round" stroke-linejoin="round"><circle cx="12" cy="12" r="9"/><path d="M9.5 9.5a2.5 2.5 0 014.2 1.8c0 1.5-2.2 2-2.2 3.2"/><path d="M12 17h.01"/></symbol>
  <symbol id="i-download" viewBox="0 0 24 24" fill="none" stroke="currentColor" stroke-width="1.75" stroke-linecap="round" stroke-linejoin="round"><path d="M12 4v11"/><path d="M7 11l5 5 5-5"/><path d="M5 20h14"/></symbol>
  <symbol id="i-play" viewBox="0 0 24 24" fill="none" stroke="currentColor" stroke-width="1.75" stroke-linecap="round" stroke-linejoin="round"><circle cx="12" cy="12" r="9"/><path d="M10 9l6 3-6 3V9z" fill="currentColor" stroke="none"/></symbol>
  <symbol id="i-check" viewBox="0 0 24 24" fill="none" stroke="currentColor" stroke-width="2.25" stroke-linecap="round" stroke-linejoin="round"><path d="M5 13l4 4L19 7"/></symbol>
  <symbol id="i-star" viewBox="0 0 24 24" fill="currentColor"><path d="M12 2.5l2.7 5.5 6 .9-4.4 4.2 1 6-5.3-2.8L6.7 19l1-6L3.3 8.9l6-.9L12 2.5z"/></symbol>
  <symbol id="i-search" viewBox="0 0 24 24" fill="none" stroke="currentColor" stroke-width="1.75" stroke-linecap="round" stroke-linejoin="round"><circle cx="11" cy="11" r="7"/><path d="M20 20l-3.5-3.5"/></symbol>
  <symbol id="i-copy" viewBox="0 0 24 24" fill="none" stroke="currentColor" stroke-width="1.75" stroke-linecap="round" stroke-linejoin="round"><rect x="8" y="8" width="12" height="12" rx="2"/><path d="M4 16V6a2 2 0 012-2h10"/></symbol>
  <symbol id="i-arrow" viewBox="0 0 24 24" fill="none" stroke="currentColor" stroke-width="1.75" stroke-linecap="round" stroke-linejoin="round"><path d="M5 12h14"/><path d="M13 6l6 6-6 6"/></symbol>
  <symbol id="i-chat" viewBox="0 0 24 24" fill="none" stroke="currentColor" stroke-width="1.75" stroke-linecap="round" stroke-linejoin="round"><path d="M5 18l-1.5 3.5L8 19h9a4 4 0 004-4V8a4 4 0 00-4-4H7a4 4 0 00-4 4v6a4 4 0 002 3.5z"/></symbol>
  <symbol id="i-bulb" viewBox="0 0 24 24" fill="none" stroke="currentColor" stroke-width="1.75" stroke-linecap="round" stroke-linejoin="round"><path d="M9 18h6"/><path d="M10 21h4"/><path d="M12 3a6 6 0 014 10.5V15H8v-1.5A6 6 0 0112 3z"/></symbol>
  <symbol id="i-build" viewBox="0 0 24 24" fill="none" stroke="currentColor" stroke-width="1.75" stroke-linecap="round" stroke-linejoin="round"><path d="M14.5 4.5l5 5"/><path d="M3 21l7.5-1.5L20 10a2.5 2.5 0 00-3.5-3.5L7 15.5 3 21z"/></symbol>
  <symbol id="i-globe" viewBox="0 0 24 24" fill="none" stroke="currentColor" stroke-width="1.75" stroke-linecap="round" stroke-linejoin="round"><circle cx="12" cy="12" r="9"/><path d="M3 12h18"/><path d="M12 3a14 14 0 010 18"/><path d="M12 3a14 14 0 000 18"/></symbol>
  <symbol id="i-github" viewBox="0 0 24 24" fill="currentColor"><path d="M12 2a10 10 0 00-3.2 19.5c.5.1.7-.2.7-.5v-1.7c-2.8.6-3.4-1.2-3.4-1.2-.4-1.1-1.1-1.4-1.1-1.4-.9-.6.1-.6.1-.6 1 .1 1.5 1 1.5 1 .9 1.5 2.3 1.1 2.9.8.1-.6.3-1.1.6-1.3-2.2-.3-4.6-1.1-4.6-5a3.9 3.9 0 011-2.7 3.6 3.6 0 01.1-2.7s.8-.3 2.8 1a9.5 9.5 0 015 0c2-1.3 2.8-1 2.8-1a3.6 3.6 0 01.1 2.7 3.9 3.9 0 011 2.7c0 3.9-2.4 4.7-4.6 5 .4.3.7.9.7 1.8v2.6c0 .3.2.6.7.5A10 10 0 0012 2z"/></symbol>
  <symbol id="i-gift" viewBox="0 0 24 24" fill="none" stroke="currentColor" stroke-width="1.75" stroke-linecap="round" stroke-linejoin="round"><rect x="3" y="8" width="18" height="13" rx="1"/><path d="M12 8v13"/><path d="M3 12h18"/><path d="M12 8c-2-3-5-3.5-5-1.5S9.5 8 12 8z"/><path d="M12 8c2-3 5-3.5 5-1.5S14.5 8 12 8z"/></symbol>
  <symbol id="i-spark" viewBox="0 0 24 24" fill="none" stroke="currentColor" stroke-width="1.75" stroke-linecap="round" stroke-linejoin="round"><path d="M12 3v4"/><path d="M12 17v4"/><path d="M3 12h4"/><path d="M17 12h4"/><path d="M5.6 5.6l2.8 2.8"/><path d="M15.6 15.6l2.8 2.8"/><path d="M5.6 18.4l2.8-2.8"/><path d="M15.6 8.4l2.8-2.8"/></symbol>
  <symbol id="i-upload" viewBox="0 0 24 24" fill="none" stroke="currentColor" stroke-width="1.75" stroke-linecap="round" stroke-linejoin="round"><path d="M12 16V5"/><path d="M7 10l5-5 5 5"/><path d="M5 20h14"/></symbol>
  <symbol id="i-plug" viewBox="0 0 24 24" fill="none" stroke="currentColor" stroke-width="1.75" stroke-linecap="round" stroke-linejoin="round"><path d="M9 7V3"/><path d="M15 7V3"/><path d="M8 7h8v4a4 4 0 01-4 4h0a4 4 0 01-4-4V7z"/><path d="M12 15v6"/></symbol>
  <symbol id="i-close" viewBox="0 0 24 24" fill="none" stroke="currentColor" stroke-width="1.75" stroke-linecap="round" stroke-linejoin="round"><path d="M6 6l12 12"/><path d="M18 6L6 18"/></symbol>
  <symbol id="i-top" viewBox="0 0 24 24" fill="none" stroke="currentColor" stroke-width="1.75" stroke-linecap="round" stroke-linejoin="round"><path d="M12 19V5"/><path d="M6 11l6-6 6 6"/></symbol>
  <symbol id="i-chev" viewBox="0 0 24 24" fill="none" stroke="currentColor" stroke-width="2" stroke-linecap="round" stroke-linejoin="round"><path d="M6 9l6 6 6-6"/></symbol>
</svg>
